<svg width="356.50002441406247px" height="124.439990234375px" xmlns="http://www.w3.org/2000/svg" viewBox="71.74998779296877 12.780004882812499 356.50002441406247 124.439990234375" style="background: none;" preserveAspectRatio="xMidYMid"><defs><filter id="editing-hole" x="-100%" y="-100%" width="300%" height="300%"><feFlood flood-color="#000" result="black"></feFlood><feMorphology operator="dilate" radius="2" in="SourceGraphic" result="erode"></feMorphology><feGaussianBlur in="erode" stdDeviation="4" result="blur"></feGaussianBlur><feOffset in="blur" dx="2" dy="2" result="offset"></feOffset><feComposite operator="atop" in="offset" in2="black" result="merge"></feComposite><feComposite operator="in" in="merge" in2="SourceGraphic" result="inner-shadow"></feComposite></filter></defs><g filter="url(#editing-hole)"><g transform="translate(127.34618103504181, 99)"><path d="M14.34 0L0.38 0L8.51-42.24L22.59-42.24L14.34 0ZM51.07 1.28L51.07 1.28L51.07 1.28Q43.33 1.28 43.33-4.74L43.33-4.74L43.33-4.74Q43.39-6.40 43.90-9.22L43.90-9.22L45.06-15.10L45.06-15.10Q46.78-23.42 46.78-25.28L46.78-25.28L46.78-25.28Q46.78-28.99 44.61-28.99L44.61-28.99L44.61-28.99Q40.96-28.99 39.04-19.46L39.04-19.46L35.26 0L22.40 1.28L29.06-32.70L39.55-33.92L38.53-27.65L38.53-27.65Q41.54-33.92 50.75-33.92L50.75-33.92L50.75-33.92Q55.23-33.92 57.12-32.03L57.12-32.03L57.12-32.03Q59.01-30.14 59.01-25.92L59.01-25.92L59.01-25.92Q59.01-21.95 56.96-12.67L56.96-12.67L56.96-12.67Q56-8.51 56-6.94L56-6.94L56-6.94Q56-5.38 56.86-4.48L56.86-4.48L56.86-4.48Q57.73-3.58 59.01-3.46L59.01-3.46L59.01-3.46Q58.37-1.28 56.16 0L56.16 0L56.16 0Q53.95 1.28 51.07 1.28ZM65.15-6.40L65.15-6.40L65.15-6.40Q65.15-8.13 66.05-12.48L66.05-12.48L69.44-29.76L65.66-29.76L65.92-31.68L65.92-31.68Q73.60-33.98 81.02-39.62L81.02-39.62L84.10-39.62L82.56-32.64L87.55-32.64L86.98-29.76L82.05-29.76L78.78-12.48L78.78-12.48Q77.95-8.51 77.95-7.17L77.95-7.17L77.95-7.17Q77.95-4.10 80.64-3.46L80.64-3.46L80.64-3.46Q80-1.28 77.70 0L77.70 0L77.70 0Q75.39 1.28 72.13 1.28L72.13 1.28L72.13 1.28Q68.86 1.28 67.01-0.77L67.01-0.77L67.01-0.77Q65.15-2.82 65.15-6.40ZM112.90-10.82L112.90-10.82L112.90-10.82Q114.50-9.73 114.50-7.33L114.50-7.33L114.50-7.33Q114.50-4.93 113.28-3.39L113.28-3.39L113.28-3.39Q112.06-1.86 110.08-0.83L110.08-0.83L110.08-0.83Q105.98 1.28 101.57 1.28L101.57 1.28L101.57 1.28Q97.15 1.28 94.56 0.32L94.56 0.32L94.56 0.32Q91.97-0.64 90.24-2.43L90.24-2.43L90.24-2.43Q86.85-5.82 86.85-12.03L86.85-12.03L86.85-12.03Q86.85-21.70 92.10-27.58L92.10-27.58L92.10-27.58Q97.73-33.92 107.52-33.92L107.52-33.92L107.52-33.92Q113.60-33.92 116.61-31.36L116.61-31.36L116.61-31.36Q118.85-29.44 118.85-26.30L118.85-26.30L118.85-26.30Q118.85-15.04 99.39-15.04L99.39-15.04L99.39-15.04Q99.14-13.38 99.14-11.97L99.14-11.97L99.14-11.97Q99.14-9.02 100.45-7.90L100.45-7.90L100.45-7.90Q101.76-6.78 104.19-6.78L104.19-6.78L104.19-6.78Q106.62-6.78 109.22-7.90L109.22-7.90L109.22-7.90Q111.81-9.02 112.90-10.82ZM99.84-17.79L99.84-17.79L99.84-17.79Q104.38-17.79 107.01-20.61L107.01-20.61L107.01-20.61Q109.63-23.30 109.63-27.58L109.63-27.58L109.63-27.58Q109.63-29.06 109.09-29.86L109.09-29.86L109.09-29.86Q108.54-30.66 107.46-30.66L107.46-30.66L107.46-30.66Q106.37-30.66 105.44-30.24L105.44-30.24L105.44-30.24Q104.51-29.82 103.55-28.42L103.55-28.42L103.55-28.42Q101.18-25.22 99.84-17.79ZM141.06-17.98L141.06-17.98L141.06-17.98Q143.36-22.08 143.36-26.24L143.36-26.24L143.36-26.24Q143.36-28.99 141.38-28.99L141.38-28.99L141.38-28.99Q139.84-28.99 138.24-26.37L138.24-26.37L138.24-26.37Q136.58-23.74 136.06-20.35L136.06-20.35L132.74 0L119.49 1.28L126.02-32.64L136.58-33.92L135.42-27.46L135.42-27.46Q138.56-33.92 145.60-33.92L145.60-33.92L145.60-33.92Q149.31-33.92 151.33-32L151.33-32L151.33-32Q153.34-30.08 153.34-26.14L153.34-26.14L153.34-26.14Q153.34-22.21 150.75-19.71L150.75-19.71L150.75-19.71Q148.16-17.22 143.74-17.22L143.74-17.22L143.74-17.22Q141.82-17.22 141.06-17.98ZM169.73-3.52L169.73-3.52L169.73-3.52Q167.74 1.28 161.41 1.28L161.41 1.28L161.41 1.28Q158.14 1.28 156.10-0.96L156.10-0.96L156.10-0.96Q154.37-2.94 154.37-4.93L154.37-4.93L154.37-4.93Q154.37-10.11 156.74-20.22L156.74-20.22L159.10-32.64L172.10-33.92L168.19-13.70L168.19-13.70Q167.10-8.96 167.10-7.30L167.10-7.30L167.10-7.30Q167.10-3.65 169.73-3.52ZM160.26-41.54L160.26-41.54L160.26-41.54Q160.26-44.03 162.34-45.38L162.34-45.38L162.34-45.38Q164.42-46.72 167.42-46.72L167.42-46.72L167.42-46.72Q170.43-46.72 172.26-45.38L172.26-45.38L172.26-45.38Q174.08-44.03 174.08-41.54L174.08-41.54L174.08-41.54Q174.08-39.04 172.06-37.76L172.06-37.76L172.06-37.76Q170.05-36.48 167.04-36.48L167.04-36.48L167.04-36.48Q164.03-36.48 162.14-37.76L162.14-37.76L162.14-37.76Q160.26-39.04 160.26-41.54ZM189.12 1.28L189.12 1.28L189.12 1.28Q175.04 1.28 175.04-11.97L175.04-11.97L175.04-11.97Q175.04-21.38 180.22-27.46L180.22-27.46L180.22-27.46Q185.73-33.92 195.26-33.92L195.26-33.92L195.26-33.92Q202.18-33.92 205.70-30.72L205.70-30.72L205.70-30.72Q209.22-27.52 209.22-20.80L209.22-20.80L209.22-20.80Q209.22-10.56 203.71-4.61L203.71-4.61L203.71-4.61Q198.34 1.28 189.12 1.28ZM190.78-26.56L190.78-26.56L190.78-26.56Q190.02-24.83 189.41-22.24L189.41-22.24L189.41-22.24Q188.80-19.65 188.03-15.55L188.03-15.55L188.03-15.55Q187.26-11.46 187.26-6.40L187.26-6.40L187.26-6.40Q187.26-4.74 187.81-3.65L187.81-3.65L187.81-3.65Q188.35-2.56 189.82-2.56L189.82-2.56L189.82-2.56Q191.30-2.56 192.22-3.26L192.22-3.26L192.22-3.26Q193.15-3.97 193.86-5.63L193.86-5.63L193.86-5.63Q195.14-8.58 196.16-14.05L196.16-14.05L196.16-14.05Q197.18-19.52 197.28-21.89L197.28-21.89L197.28-21.89Q197.38-24.26 197.38-26.02L197.38-26.02L197.38-26.02Q197.38-27.78 196.86-28.93L196.86-28.93L196.86-28.93Q196.35-30.08 194.91-30.08L194.91-30.08L194.91-30.08Q193.47-30.08 192.51-29.18L192.51-29.18L192.51-29.18Q191.55-28.29 190.78-26.56ZM233.02-17.98L233.02-17.98L233.02-17.98Q235.33-22.08 235.33-26.24L235.33-26.24L235.33-26.24Q235.33-28.99 233.34-28.99L233.34-28.99L233.34-28.99Q231.81-28.99 230.21-26.37L230.21-26.37L230.21-26.37Q228.54-23.74 228.03-20.35L228.03-20.35L224.70 0L211.46 1.28L217.98-32.64L228.54-33.92L227.39-27.46L227.39-27.46Q230.53-33.92 237.57-33.92L237.57-33.92L237.57-33.92Q241.28-33.92 243.30-32L243.30-32L243.30-32Q245.31-30.08 245.31-26.14L245.31-26.14L245.31-26.14Q245.31-22.21 242.72-19.71L242.72-19.71L242.72-19.71Q240.13-17.22 235.71-17.22L235.71-17.22L235.71-17.22Q233.79-17.22 233.02-17.98Z" fill="#ccc"></path></g></g><style>text {
  font-size: 64px;
  font-family: Arial Black;
  dominant-baseline: central;
  text-anchor: middle;
}</style></svg>