<svg width="296.8400146484375px" height="124.439990234375px" xmlns="http://www.w3.org/2000/svg" viewBox="101.57999267578126 12.780004882812499 296.8400146484375 124.439990234375" style="background: none;" preserveAspectRatio="xMidYMid"><defs><filter id="editing-raise" x="-100%" y="-100%" width="300%" height="300%"><feFlood flood-color="#ccc" result="flood-surface"></feFlood><feFlood flood-color="#777" result="flood-extrude"></feFlood><feMorphology operator="erode" in="SourceAlpha" radius="1" result="erode"></feMorphology><feConvolveMatrix in="erode" result="shadow" order="11,8" divisor="1" kernelMatrix="0 0 0 1 1 1 1 1 0 0 0 0 0 1 0 0 0 0 0 1 0 0 0 0 1 0 0 0 0 0 1 0 0 0 0 1 0 0 0 0 0 1 0 0 0 0 1 0 0 0 0 0 1 0 0 0 0 0 1 0 0 0 1 0 0 0 0 0 0 1 1 0 1 1 0 0 0 0 0 0 0 0 1 0 0 0 0 0"></feConvolveMatrix><feOffset dx="0" dy="4" in="shadow" result="offset"></feOffset><feGaussianBlur in="offset" stdDeviation="0.2" result="blur"></feGaussianBlur><feComposite operator="in" in="flood-extrude" in2="blur" result="extrude"></feComposite><feMorphology operator="erode" in="SourceAlpha" radius="1" result="erode2"></feMorphology><feConvolveMatrix in="erode2" result="out" order="4,4" divisor="1" kernelMatrix="0 1 1 0 1 0 0 1 1 0 0 1 0 1 1 0 "></feConvolveMatrix><feComposite operator="in" in="flood-surface" in2="out" result="text"></feComposite><feMerge><feMergeNode in="extrude"></feMergeNode><feMergeNode in="text"></feMergeNode></feMerge></filter></defs><g filter="url(#editing-raise)"><g transform="translate(150.96000397205353, 102.52000045776367)"><path d="M24.96-4.80L24.96-4.80L24.96-4.80Q24.96-9.28 26.75-18.24L26.75-18.24L17.28-18.24L13.76 0L0.38 0L8.51-42.24L22.02-42.24L18.30-23.36L27.78-23.36L31.30-42.24L44.80-42.24L44.80-42.24Q43.90-37.50 42.75-32.19L42.75-32.19L40.58-21.76L40.58-21.76Q38.14-9.60 38.14-4.29L38.14-4.29L38.14-4.29Q38.14-2.11 38.85-0.90L38.85-0.90L38.85-0.90Q35.65 1.28 31.90 1.28L31.90 1.28L31.90 1.28Q28.16 1.28 26.56-0.51L26.56-0.51L26.56-0.51Q24.96-2.30 24.96-4.80ZM60.29 1.28L60.29 1.28L60.29 1.28Q46.21 1.28 46.21-11.97L46.21-11.97L46.21-11.97Q46.21-21.38 51.39-27.46L51.39-27.46L51.39-27.46Q56.90-33.92 66.43-33.92L66.43-33.92L66.43-33.92Q73.34-33.92 76.86-30.72L76.86-30.72L76.86-30.72Q80.38-27.52 80.38-20.80L80.38-20.80L80.38-20.80Q80.38-10.56 74.88-4.61L74.88-4.61L74.88-4.61Q69.50 1.28 60.29 1.28ZM61.95-26.56L61.95-26.56L61.95-26.56Q61.18-24.83 60.58-22.24L60.58-22.24L60.58-22.24Q59.97-19.65 59.20-15.55L59.20-15.55L59.20-15.55Q58.43-11.46 58.43-6.40L58.43-6.40L58.43-6.40Q58.43-4.74 58.98-3.65L58.98-3.65L58.98-3.65Q59.52-2.56 60.99-2.56L60.99-2.56L60.99-2.56Q62.46-2.56 63.39-3.26L63.39-3.26L63.39-3.26Q64.32-3.97 65.02-5.63L65.02-5.63L65.02-5.63Q66.30-8.58 67.33-14.05L67.33-14.05L67.33-14.05Q68.35-19.52 68.45-21.89L68.45-21.89L68.45-21.89Q68.54-24.26 68.54-26.02L68.54-26.02L68.54-26.02Q68.54-27.78 68.03-28.93L68.03-28.93L68.03-28.93Q67.52-30.08 66.08-30.08L66.08-30.08L66.08-30.08Q64.64-30.08 63.68-29.18L63.68-29.18L63.68-29.18Q62.72-28.29 61.95-26.56ZM88.70-26.75L88.70-26.75L88.70-26.75Q90.88-29.82 94.18-31.87L94.18-31.87L94.18-31.87Q97.47-33.92 101.50-33.92L101.50-33.92L101.50-33.92Q105.54-33.92 107.46-32.64L107.46-32.64L120-33.92L115.65-9.34L115.65-9.34Q113.41 3.20 108.67 8.13L108.67 8.13L108.67 8.13Q104.13 12.80 95.30 12.80L95.30 12.80L95.30 12.80Q88.58 12.80 84.74 10.69L84.74 10.69L84.74 10.69Q80.90 8.58 80.90 5.06L80.90 5.06L80.90 5.06Q80.90 2.43 82.88 0.93L82.88 0.93L82.88 0.93Q84.86-0.58 87.94-0.58L87.94-0.58L87.94-0.58Q90.62-0.58 92.67 0.64L92.67 0.64L92.67 0.64Q93.89 1.28 94.46 2.18L94.46 2.18L94.46 2.18Q92.99 3.46 92.99 5.57L92.99 5.57L92.99 5.57Q92.99 8.32 95.55 8.32L95.55 8.32L95.55 8.32Q99.84 8.32 102.27-1.79L102.27-1.79L102.27-1.79Q102.98-4.54 103.55-7.30L103.55-7.30L103.55-7.30Q100.67-3.78 94.14-3.78L94.14-3.78L94.14-3.78Q89.60-3.78 86.98-5.95L86.98-5.95L86.98-5.95Q84.35-8.13 84.35-13.25L84.35-13.25L84.35-13.25Q84.35-16.45 85.44-20.06L85.44-20.06L85.44-20.06Q86.53-23.68 88.70-26.75ZM97.02-13.06L97.02-13.06L97.02-13.06Q97.02-8.70 99.26-8.70L99.26-8.70L99.26-8.70Q100.80-8.70 102.27-10.37L102.27-10.37L102.27-10.37Q103.42-11.71 103.87-13.70L103.87-13.70L107.14-30.14L107.14-30.14Q106.82-30.21 106.50-30.34L106.50-30.34L106.50-30.34Q105.86-30.59 105.02-30.59L105.02-30.59L105.02-30.59Q101.12-30.59 98.82-24.19L98.82-24.19L98.82-24.19Q97.02-19.20 97.02-13.06ZM125.28-1.92L125.28-1.92L125.28-1.92Q123.78-3.58 123.10-6.21L123.10-6.21L123.10-6.21Q122.43-8.83 122.43-13.12L122.43-13.12L122.43-13.12Q122.43-17.41 123.90-21.31L123.90-21.31L123.90-21.31Q125.38-25.22 128.06-28.03L128.06-28.03L128.06-28.03Q133.57-33.92 142.66-33.92L142.66-33.92L142.66-33.92Q145.92-33.92 148.29-32.83L148.29-32.83L159.23-33.92L154.50-8.96L154.50-8.96Q154.30-8.19 154.30-6.78L154.30-6.78L154.30-6.78Q154.30-5.38 155.17-4.48L155.17-4.48L155.17-4.48Q156.03-3.58 157.31-3.46L157.31-3.46L157.31-3.46Q156.67-1.28 154.34 0L154.34 0L154.34 0Q152 1.28 149.38 1.28L149.38 1.28L149.38 1.28Q146.75 1.28 144.99 0.29L144.99 0.29L144.99 0.29Q143.23-0.70 142.72-2.37L142.72-2.37L142.72-2.37Q141.70-0.77 139.52 0.26L139.52 0.26L139.52 0.26Q137.34 1.28 134.43 1.28L134.43 1.28L134.43 1.28Q131.52 1.28 129.15 0.51L129.15 0.51L129.15 0.51Q126.78-0.26 125.28-1.92ZM138.78-27.90L138.78-27.90L138.78-27.90Q138.05-26.75 137.41-24.80L137.41-24.80L137.41-24.80Q136.77-22.85 135.71-17.63L135.71-17.63L135.71-17.63Q134.66-12.42 134.66-8.70L134.66-8.70L134.66-8.70Q134.66-4.99 135.23-3.90L135.23-3.90L135.23-3.90Q135.81-2.82 136.83-2.82L136.83-2.82L136.83-2.82Q138.88-2.82 140.38-4.77L140.38-4.77L140.38-4.77Q141.89-6.72 142.46-10.18L142.46-10.18L145.86-28.93L145.86-28.93Q144.51-30.08 142.94-30.08L142.94-30.08L142.94-30.08Q141.38-30.08 140.45-29.57L140.45-29.57L140.45-29.57Q139.52-29.06 138.78-27.90ZM189.76 1.28L189.76 1.28L189.76 1.28Q182.02 1.28 182.02-4.74L182.02-4.74L182.02-4.74Q182.08-6.40 182.59-9.22L182.59-9.22L183.74-15.10L183.74-15.10Q185.47-23.42 185.47-25.28L185.47-25.28L185.47-25.28Q185.47-28.99 183.30-28.99L183.30-28.99L183.30-28.99Q179.65-28.99 177.73-19.46L177.73-19.46L173.95 0L161.09 1.28L167.74-32.70L178.24-33.92L177.22-27.65L177.22-27.65Q180.22-33.92 189.44-33.92L189.44-33.92L189.44-33.92Q193.92-33.92 195.81-32.03L195.81-32.03L195.81-32.03Q197.70-30.14 197.70-25.92L197.70-25.92L197.70-25.92Q197.70-21.95 195.65-12.67L195.65-12.67L195.65-12.67Q194.69-8.51 194.69-6.94L194.69-6.94L194.69-6.94Q194.69-5.38 195.55-4.48L195.55-4.48L195.55-4.48Q196.42-3.58 197.70-3.46L197.70-3.46L197.70-3.46Q197.06-1.28 194.85 0L194.85 0L194.85 0Q192.64 1.28 189.76 1.28Z"></path></g></g><style>text {
  font-size: 64px;
  font-family: Arial Black;
  dominant-baseline: central;
  text-anchor: middle;
}</style></svg>