<svg width="306.97999267578126px" height="124.439990234375px" xmlns="http://www.w3.org/2000/svg" viewBox="96.51000366210937 12.780004882812499 306.97999267578126 124.439990234375" style="background: none;" preserveAspectRatio="xMidYMid"><defs><filter id="editing-hole" x="-100%" y="-100%" width="300%" height="300%"><feFlood flood-color="#000" result="black"></feFlood><feMorphology operator="dilate" radius="2" in="SourceGraphic" result="erode"></feMorphology><feGaussianBlur in="erode" stdDeviation="4" result="blur"></feGaussianBlur><feOffset in="blur" dx="2" dy="2" result="offset"></feOffset><feComposite operator="atop" in="offset" in2="black" result="merge"></feComposite><feComposite operator="in" in="merge" in2="SourceGraphic" result="inner-shadow"></feComposite></filter></defs><g filter="url(#editing-hole)"><g transform="translate(147.15500855445862, 104.76000022888184)"><path d="M42.62-26.56L42.62-26.56L42.62-26.56Q42.62 0.70 13.06 0.70L13.06 0.70L13.06 0.70Q8.32 0.70 0.51-0.45L0.51-0.45L7.68-38.27L7.68-38.27Q8.19-40.83 8.51-42.30L8.51-42.30L8.51-42.30Q18.24-43.01 22.56-43.01L22.56-43.01L22.56-43.01Q26.88-43.01 30.85-42.11L30.85-42.11L30.85-42.11Q34.82-41.22 37.44-39.23L37.44-39.23L37.44-39.23Q42.62-35.33 42.62-26.56ZM29.44-28.93L29.44-28.93L29.44-28.93Q29.44-38.46 22.59-38.46L22.59-38.46L21.95-38.46L21.95-38.46Q21.63-38.46 21.31-38.40L21.31-38.40L14.72-4.03L14.72-4.03Q14.98-3.90 15.23-3.90L15.23-3.90L15.74-3.90L15.74-3.90Q18.11-3.90 20.58-5.38L20.58-5.38L20.58-5.38Q23.04-6.85 24.96-9.86L24.96-9.86L24.96-9.86Q29.44-16.83 29.44-28.93ZM71.81-10.82L71.81-10.82L71.81-10.82Q73.41-9.73 73.41-7.33L73.41-7.33L73.41-7.33Q73.41-4.93 72.19-3.39L72.19-3.39L72.19-3.39Q70.98-1.86 68.99-0.83L68.99-0.83L68.99-0.83Q64.90 1.28 60.48 1.28L60.48 1.28L60.48 1.28Q56.06 1.28 53.47 0.32L53.47 0.32L53.47 0.32Q50.88-0.64 49.15-2.43L49.15-2.43L49.15-2.43Q45.76-5.82 45.76-12.03L45.76-12.03L45.76-12.03Q45.76-21.70 51.01-27.58L51.01-27.58L51.01-27.58Q56.64-33.92 66.43-33.92L66.43-33.92L66.43-33.92Q72.51-33.92 75.52-31.36L75.52-31.36L75.52-31.36Q77.76-29.44 77.76-26.30L77.76-26.30L77.76-26.30Q77.76-15.04 58.30-15.04L58.30-15.04L58.30-15.04Q58.05-13.38 58.05-11.97L58.05-11.97L58.05-11.97Q58.05-9.02 59.36-7.90L59.36-7.90L59.36-7.90Q60.67-6.78 63.10-6.78L63.10-6.78L63.10-6.78Q65.54-6.78 68.13-7.90L68.13-7.90L68.13-7.90Q70.72-9.02 71.81-10.82ZM58.75-17.79L58.75-17.79L58.75-17.79Q63.30-17.79 65.92-20.61L65.92-20.61L65.92-20.61Q68.54-23.30 68.54-27.58L68.54-27.58L68.54-27.58Q68.54-29.06 68-29.86L68-29.86L68-29.86Q67.46-30.66 66.37-30.66L66.37-30.66L66.37-30.66Q65.28-30.66 64.35-30.24L64.35-30.24L64.35-30.24Q63.42-29.82 62.46-28.42L62.46-28.42L62.46-28.42Q60.10-25.22 58.75-17.79ZM99.07-22.46L99.07-22.46L99.07-22.46Q99.97-24.83 99.97-26.88L99.97-26.88L99.97-26.88Q99.97-30.66 96.90-30.66L96.90-30.66L96.90-30.66Q95.30-30.66 93.98-29.22L93.98-29.22L93.98-29.22Q92.67-27.78 92.67-25.98L92.67-25.98L92.67-25.98Q92.67-24.70 93.70-23.68L93.70-23.68L93.70-23.68Q95.17-22.27 98.94-19.97L98.94-19.97L98.94-19.97Q102.72-17.66 104.16-15.78L104.16-15.78L104.16-15.78Q105.60-13.89 105.60-11.30L105.60-11.30L105.60-11.30Q105.60-8.70 104.35-6.34L104.35-6.34L104.35-6.34Q103.10-3.97 100.86-2.30L100.86-2.30L100.86-2.30Q96.06 1.28 88.38 1.28L88.38 1.28L88.38 1.28Q84.22 1.28 81.02-0.90L81.02-0.90L81.02-0.90Q77.82-3.01 77.82-5.50L77.82-5.50L77.82-5.50Q77.82-8 79.65-9.47L79.65-9.47L79.65-9.47Q81.47-10.94 84.16-10.94L84.16-10.94L84.16-10.94Q86.85-10.94 88.51-9.92L88.51-9.92L88.51-9.92Q87.68-7.81 87.68-6.40L87.68-6.40L87.68-6.40Q87.68-2.18 91.26-2.18L91.26-2.18L91.26-2.18Q92.80-2.18 93.82-3.14L93.82-3.14L93.82-3.14Q94.85-4.10 94.85-5.76L94.85-5.76L94.85-5.76Q94.85-9.02 89.34-12.48L89.34-12.48L89.34-12.48Q84.86-15.42 83.84-16.58L83.84-16.58L83.84-16.58Q82.11-18.62 82.11-21.18L82.11-21.18L82.11-21.18Q82.11-23.74 83.33-26.18L83.33-26.18L83.33-26.18Q84.54-28.61 86.78-30.34L86.78-30.34L86.78-30.34Q91.46-33.92 99.58-33.92L99.58-33.92L99.58-33.92Q103.74-33.92 106.21-32.26L106.21-32.26L106.21-32.26Q108.67-30.59 108.67-27.78L108.67-27.78L108.67-27.78Q108.67-24.96 106.98-23.36L106.98-23.36L106.98-23.36Q105.28-21.76 102.21-21.76L102.21-21.76L102.21-21.76Q100.10-21.76 99.07-22.46ZM126.40-3.52L126.40-3.52L126.40-3.52Q124.42 1.28 118.08 1.28L118.08 1.28L118.08 1.28Q114.82 1.28 112.77-0.96L112.77-0.96L112.77-0.96Q111.04-2.94 111.04-4.93L111.04-4.93L111.04-4.93Q111.04-10.11 113.41-20.22L113.41-20.22L115.78-32.64L128.77-33.92L124.86-13.70L124.86-13.70Q123.78-8.96 123.78-7.30L123.78-7.30L123.78-7.30Q123.78-3.65 126.40-3.52ZM116.93-41.54L116.93-41.54L116.93-41.54Q116.93-44.03 119.01-45.38L119.01-45.38L119.01-45.38Q121.09-46.72 124.10-46.72L124.10-46.72L124.10-46.72Q127.10-46.72 128.93-45.38L128.93-45.38L128.93-45.38Q130.75-44.03 130.75-41.54L130.75-41.54L130.75-41.54Q130.75-39.04 128.74-37.76L128.74-37.76L128.74-37.76Q126.72-36.48 123.71-36.48L123.71-36.48L123.71-36.48Q120.70-36.48 118.82-37.76L118.82-37.76L118.82-37.76Q116.93-39.04 116.93-41.54ZM136.38-26.75L136.38-26.75L136.38-26.75Q138.56-29.82 141.86-31.87L141.86-31.87L141.86-31.87Q145.15-33.92 149.18-33.92L149.18-33.92L149.18-33.92Q153.22-33.92 155.14-32.64L155.14-32.64L167.68-33.92L163.33-9.34L163.33-9.34Q161.09 3.20 156.35 8.13L156.35 8.13L156.35 8.13Q151.81 12.80 142.98 12.80L142.98 12.80L142.98 12.80Q136.26 12.80 132.42 10.69L132.42 10.69L132.42 10.69Q128.58 8.58 128.58 5.06L128.58 5.06L128.58 5.06Q128.58 2.43 130.56 0.93L130.56 0.93L130.56 0.93Q132.54-0.58 135.62-0.58L135.62-0.58L135.62-0.58Q138.30-0.58 140.35 0.64L140.35 0.64L140.35 0.64Q141.57 1.28 142.14 2.18L142.14 2.18L142.14 2.18Q140.67 3.46 140.67 5.57L140.67 5.57L140.67 5.57Q140.67 8.32 143.23 8.32L143.23 8.32L143.23 8.32Q147.52 8.32 149.95-1.79L149.95-1.79L149.95-1.79Q150.66-4.54 151.23-7.30L151.23-7.30L151.23-7.30Q148.35-3.78 141.82-3.78L141.82-3.78L141.82-3.78Q137.28-3.78 134.66-5.95L134.66-5.95L134.66-5.95Q132.03-8.13 132.03-13.25L132.03-13.25L132.03-13.25Q132.03-16.45 133.12-20.06L133.12-20.06L133.12-20.06Q134.21-23.68 136.38-26.75ZM144.70-13.06L144.70-13.06L144.70-13.06Q144.70-8.70 146.94-8.70L146.94-8.70L146.94-8.70Q148.48-8.70 149.95-10.37L149.95-10.37L149.95-10.37Q151.10-11.71 151.55-13.70L151.55-13.70L154.82-30.14L154.82-30.14Q154.50-30.21 154.18-30.34L154.18-30.34L154.18-30.34Q153.54-30.59 152.70-30.59L152.70-30.59L152.70-30.59Q148.80-30.59 146.50-24.19L146.50-24.19L146.50-24.19Q144.70-19.20 144.70-13.06ZM197.25 1.28L197.25 1.28L197.25 1.28Q189.50 1.28 189.50-4.74L189.50-4.74L189.50-4.74Q189.57-6.40 190.08-9.22L190.08-9.22L191.23-15.10L191.23-15.10Q192.96-23.42 192.96-25.28L192.96-25.28L192.96-25.28Q192.96-28.99 190.78-28.99L190.78-28.99L190.78-28.99Q187.14-28.99 185.22-19.46L185.22-19.46L181.44 0L168.58 1.28L175.23-32.70L185.73-33.92L184.70-27.65L184.70-27.65Q187.71-33.92 196.93-33.92L196.93-33.92L196.93-33.92Q201.41-33.92 203.30-32.03L203.30-32.03L203.30-32.03Q205.18-30.14 205.18-25.92L205.18-25.92L205.18-25.92Q205.18-21.95 203.14-12.67L203.14-12.67L203.14-12.67Q202.18-8.51 202.18-6.94L202.18-6.94L202.18-6.94Q202.18-5.38 203.04-4.48L203.04-4.48L203.04-4.48Q203.90-3.58 205.18-3.46L205.18-3.46L205.18-3.46Q204.54-1.28 202.34 0L202.34 0L202.34 0Q200.13 1.28 197.25 1.28Z" fill="#ccc"></path></g></g><style>text {
  font-size: 64px;
  font-family: Arial Black;
  dominant-baseline: central;
  text-anchor: middle;
}</style></svg>